# xmcd CD database file
#
# Track frame offsets:
#	150
#	12885
#	32834
#	51671
#	78978
#	110903
#	136063
#	180448
#	215794
#	274700
#	306108
#
# Disc length: 4540 seconds
#
# Revision: 8
# Processed by: cddbd v1.5PL3 Copyright (c) Steve Scherf et al.
# Submitted via: CDex 1.50
#
DISCID=9b11ba0b
DTITLE=Tsuyoshi Nagabuchi - Itsuka no Shounen BEST COLLECTION Disc3
DYEAR=1900
DGENRE=JPop
TTITLE0=Junko
TTITLE1=sugao
TTITLE2=meguri renka'92
TTITLE3=Shiriasu
TTITLE4=BUTA
TTITLE5=RUN
TTITLE6=Ganjisu
TTITLE7=MOTHER
TTITLE8=Captain of the ship
TTITLE9=Ningen
TTITLE10=Itsuka no Shounen
EXTD=
EXTT0=
EXTT1=
EXTT2=
EXTT3=
EXTT4=
EXTT5=
EXTT6=
EXTT7=
EXTT8=
EXTT9=
EXTT10=
PLAYORDER=
